<mxfile host="app.diagrams.net" modified="2023-10-14T05:58:49.522Z" agent="Mozilla/5.0 (Windows NT 10.0; Win64; x64) AppleWebKit/537.36 (KHTML, like Gecko) Chrome/118.0.0.0 Safari/537.36" version="21.6.6" etag="KgKe8MMHGUf8es6ZrHCr" type="github">
  <diagram name="페이지-1" id="MU5TbS69cQUhH_gh0nMM">
    <mxGraphModel>
      <root>
        <mxCell id="0" />
        <mxCell id="1" parent="0" />
      </root>
    </mxGraphModel>
  </diagram>
</mxfile>
